# Blender 4.5.2 LTS
# www.blender.org
mtllib cauldron.mtl
o Cylinder.001
v -0.344234 0.325807 -0.166242
v -0.263604 0.254838 -0.264232
v -0.178210 0.341503 -0.202088
v -0.385504 0.117728 -0.179153
v -0.081501 0.385894 -0.416645
v 0.229003 0.518906 -0.426960
v 0.183097 0.340943 0.129763
v 0.324136 0.370699 -0.119530
v 0.308846 0.167839 -0.036907
v 0.290016 0.268081 0.171144
v 0.277125 0.339109 -0.013490
v 0.040862 0.170420 0.335957
v -0.371487 0.348181 0.293615
v -0.089168 0.344169 0.250522
v -0.323989 0.263456 0.340437
v -0.123757 0.247436 0.319464
v 0.091801 0.333580 0.233156
v -0.240801 0.114839 0.281512
v -0.348916 0.327126 0.122005
v -0.467476 0.265870 0.180805
v -0.269791 0.341296 -0.022211
v -0.359809 0.234771 -0.000351
v -0.441119 0.006152 -0.036859
v 0.367964 0.499844 -0.279854
v 0.297668 -0.001985 -0.324956
v 0.078044 0.340372 -0.164222
v 0.418363 0.451027 -0.124328
v 0.054197 0.229815 0.503967
v 0.234987 0.195010 0.391239
v 0.182708 0.178947 0.215027
v 0.322611 0.307667 0.339971
v 0.327042 -0.000493 0.194209
v 0.290963 0.245670 -0.283030
v 0.314875 0.373431 -0.297583
v 0.479088 0.749470 0.147073
v -0.304539 0.376699 -0.303120
v -0.435024 0.252191 -0.165701
v -0.316931 0.150807 -0.305380
v -0.282813 0.456680 -0.420528
v -0.381766 0.406479 -0.198245
v -0.328508 0.195723 0.126538
v 0.170722 0.294262 0.438962
v -0.285943 0.157584 -0.415621
v -0.233170 -0.000068 -0.273325
v -0.310508 -0.000270 -0.361499
v 0.197661 0.322918 -0.402584
v 0.105470 0.417161 -0.410591
v 0.104108 0.266511 -0.286580
v -0.128744 0.158752 -0.260426
v 0.016299 0.341084 -0.312432
v 0.211482 -0.000000 -0.252886
v 0.215029 0.001985 -0.445460
v 0.368664 0.000000 0.023194
v 0.464735 0.351126 0.131577
v 0.499571 0.295320 -0.027594
v 0.497152 0.404552 0.065268
v 0.500874 0.000000 0.005435
v 0.263665 0.000589 0.388398
v 0.021886 0.000078 0.499433
v 0.369116 0.394495 0.251886
v -0.390796 0.000006 0.153255
v -0.429797 -0.000005 0.273774
v -0.451303 0.001708 -0.154159
v -0.477969 0.419744 -0.084126
v -0.429503 0.155299 0.263420
v -0.519719 0.377233 0.063192
v -0.090924 0.092221 0.342663
v -0.241849 0.393400 0.369668
v 0.177210 0.526181 0.465091
v -0.001583 0.328707 0.503904
v -0.080507 0.204235 0.476437
v -0.464112 0.998671 0.206599
v -0.096071 0.751253 0.459696
v -0.115465 0.367510 0.459883
v 0.230107 0.000513 0.262368
v 0.287267 0.325704 0.090369
v -0.311693 -0.000006 0.201445
v 0.000005 0.000000 0.359673
v 0.372035 -0.000609 0.344292
v -0.217695 0.340580 0.138942
v -0.318861 -0.000000 -0.056921
v -0.128941 0.000069 -0.361489
v -0.105306 0.000000 0.459673
v 0.428593 -0.000000 -0.089252
v -0.213458 -0.000068 -0.432184
v -0.318809 0.000005 0.345183
v -0.088828 0.511533 -0.428394
v -0.405449 1.000130 -0.166008
v -0.403853 0.999562 0.185889
v -0.001472 1.000205 0.430781
v 0.427387 0.999976 0.100566
v -0.175930 1.000204 -0.408641
v 0.252661 0.999921 -0.387342
v -0.473272 0.999736 -0.198913
v 0.001674 0.999858 0.519208
v 0.488256 0.999496 0.105014
v -0.196176 1.000606 -0.465931
v 0.293097 0.999655 -0.445728
v -0.135447 0.461619 -0.308382
v -0.310684 0.461621 -0.130574
v -0.310703 0.461615 0.110736
v -0.009931 0.461621 0.314621
v 0.306069 0.461619 0.051496
v 0.171683 0.461619 -0.277689
vn -0.7517 0.1228 -0.6480
vn -0.3195 -0.0229 -0.9473
vn -0.8282 -0.4026 -0.3899
vn 0.5398 0.2783 -0.7944
vn 0.2150 -0.2721 -0.9380
vn 0.8980 0.1068 0.4269
vn -0.2817 -0.3601 0.8893
vn 0.5239 -0.4526 -0.7216
vn -0.6982 -0.6483 -0.3037
vn 0.1856 -0.2190 0.9579
vn 0.5768 -0.6759 0.4588
vn -0.4928 -0.0897 0.8655
vn 0.7486 -0.5596 0.3557
vn 0.1069 -0.9935 -0.0390
vn -0.0585 -0.0426 0.9974
vn 0.9832 -0.0990 0.1535
vn 0.2134 -0.6994 0.6821
vn 0.1294 -0.0141 -0.9915
vn -0.6439 0.0277 0.7646
vn 0.9303 0.2309 -0.2848
vn -0.5786 -0.1825 -0.7949
vn -0.9941 0.0685 0.0837
vn 0.6114 -0.7557 -0.2347
vn 0.7615 -0.5871 0.2749
vn -0.7242 -0.2670 0.6358
vn -0.0434 -0.9982 0.0416
vn 0.1483 -0.2072 0.9670
vn 0.5810 -0.4377 0.6862
vn 0.1052 -0.9931 0.0524
vn 0.6003 0.3515 -0.7184
vn -0.0344 -0.1179 -0.9924
vn 0.1742 -0.1603 -0.9716
vn -0.9264 -0.3759 -0.0209
vn -0.1529 -0.9518 -0.2658
vn 0.1578 -0.8448 -0.5113
vn 0.6359 -0.1120 0.7636
vn 0.4506 -0.6635 0.5973
vn 0.9593 0.1319 -0.2497
vn -0.6681 -0.6914 0.2750
vn -0.4280 -0.4835 -0.7636
vn 0.1727 -0.9746 -0.1427
vn -0.3829 -0.6710 -0.6350
vn -0.0321 -0.9994 -0.0109
vn -0.9284 -0.3707 0.0260
vn -0.7268 -0.0131 0.6867
vn 0.3407 -0.0337 -0.9396
vn 0.1260 -0.3239 0.9377
vn 0.8706 -0.3123 -0.3802
vn 0.6467 -0.7614 -0.0453
vn -0.1838 -0.9770 -0.1081
vn 0.8600 -0.5082 -0.0469
vn 0.2963 -0.3793 -0.8765
vn 0.2894 -0.3917 -0.8734
vn -0.8418 -0.0151 0.5396
vn 0.7932 -0.0642 -0.6055
vn -0.1046 0.2273 -0.9682
vn -0.0129 -0.7930 0.6090
vn -0.5886 -0.2155 0.7791
vn 0.9804 -0.1896 -0.0539
vn 0.9084 0.2822 -0.3083
vn -0.8967 -0.1073 -0.4295
vn -0.0000 -1.0000 -0.0000
vn -0.7947 -0.4349 -0.4235
vn 0.9346 -0.2182 0.2810
vn 0.9726 -0.2325 0.0050
vn 0.9790 -0.1347 -0.1532
vn 0.9585 -0.2839 0.0243
vn 0.6560 -0.4499 -0.6061
vn 0.3296 -0.8960 -0.2976
vn 0.0349 -0.1437 -0.9890
vn 0.0332 -0.1409 -0.9895
vn 0.0361 -0.1462 -0.9886
vn 0.5007 -0.2715 -0.8219
vn -0.7816 -0.5955 0.1859
vn -0.4029 -0.0940 -0.9104
vn -0.3680 -0.0098 -0.9298
vn 0.0365 -0.1463 -0.9886
vn 0.8370 -0.5456 0.0415
vn -0.9573 -0.2825 0.0619
vn -0.5395 0.1549 0.8276
vn -0.1593 -0.1701 0.9725
vn -0.5336 -0.6269 0.5676
vn -0.2981 -0.0421 0.9536
vn 0.2330 -0.9429 -0.2380
vn 0.8303 -0.1356 -0.5406
vn -0.9609 -0.1713 0.2177
vn -0.9595 -0.1834 0.2140
vn -0.9610 -0.1707 0.2178
vn 0.8145 0.2479 0.5246
vn -0.9921 0.1226 -0.0254
vn -0.9594 -0.1837 0.2138
vn -0.1303 -0.5441 -0.8288
vn 0.0793 -0.2662 0.9606
vn 0.7136 -0.1221 -0.6899
vn 0.4716 -0.0445 0.8807
vn 0.2445 -0.7854 -0.5686
vn -0.3190 -0.7766 -0.5432
vn -0.6947 -0.3337 -0.6372
vn -0.8107 -0.5103 0.2870
vn 0.7789 -0.0040 0.6271
vn -0.9513 -0.0187 -0.3078
vn -0.5344 -0.6307 -0.5628
vn 0.0005 -1.0000 0.0005
vn -0.9962 0.0839 0.0227
vn -0.0000 1.0000 -0.0000
vn 0.6086 0.0263 0.7930
vn 0.1581 -0.9633 -0.2169
vn -0.1328 -0.5156 -0.8464
vn -0.7674 -0.4755 -0.4301
vn -0.6931 0.0504 -0.7191
vn 0.0236 -0.0713 -0.9972
vn 0.9518 0.0262 -0.3056
vn 0.0055 -0.0391 -0.9992
vn 0.8196 0.1183 -0.5606
vn 0.0250 -0.1353 -0.9905
vn -0.9733 0.0346 -0.2271
vn -0.0094 -1.0000 0.0025
vn -0.5624 -0.3664 -0.7412
vn -0.9473 -0.1601 0.2776
vn -0.7377 0.1178 0.6648
vn 0.4061 0.0658 0.9114
vn 0.9785 0.0272 0.2046
vn -0.0070 0.9999 0.0077
vn 0.9851 0.1721 -0.0025
vn 0.5282 0.1887 -0.8279
vn 0.0051 1.0000 0.0054
vn 0.0926 0.1107 0.9895
vn -0.9505 -0.1175 -0.2875
vn 0.0054 -0.0397 -0.9992
vn -0.7871 0.0396 -0.6155
vn -0.0056 -1.0000 -0.0025
vn 0.6528 0.1377 0.7449
vn 0.0062 1.0000 -0.0021
vn -0.6115 0.1915 -0.7677
vn 0.0019 -1.0000 0.0002
vn -0.5357 0.0245 0.8441
vn -0.0691 0.1934 0.9787
vn 0.7093 0.1751 0.6828
vn -0.9179 0.1920 0.3472
vn 0.0013 1.0000 0.0014
vn 0.0011 1.0000 0.0021
vn -0.0005 1.0000 -0.0000
vn -0.5730 0.0229 0.8192
vn 0.7001 -0.2004 -0.6853
vn -0.2418 -0.0141 0.9702
vn 0.5428 -0.0963 0.8344
vn -0.9572 -0.0487 -0.2853
vn -0.8567 -0.0935 -0.5073
vn -0.5920 -0.6885 -0.4190
vn -0.0103 0.9999 0.0023
vn -0.0009 1.0000 0.0010
vt 0.000000 0.000000
s 1
f 64/1/1 40/1/1 37/1/1
f 4/1/2 63/1/2 37/1/2
f 36/1/3 2/1/3 1/1/3
f 4/1/4 37/1/4 21/1/4
f 40/1/5 1/1/5 37/1/5
f 5/1/6 3/1/6 49/1/6
f 3/1/7 2/1/7 49/1/7
f 63/1/8 4/1/8 81/1/8
f 22/1/9 20/1/9 66/1/9
f 22/1/10 66/1/10 23/1/10
f 22/1/11 19/1/11 20/1/11
f 44/1/12 2/1/12 38/1/12
f 21/1/13 19/1/13 22/1/13
f 21/1/14 80/1/14 19/1/14
f 2/1/15 44/1/15 49/1/15
f 82/1/16 5/1/16 49/1/16
f 3/1/17 1/1/17 2/1/17
f 19/1/18 80/1/18 41/1/18
f 38/1/19 2/1/19 36/1/19
f 81/1/20 4/1/20 22/1/20
f 45/1/21 43/1/21 85/1/21
f 63/1/22 23/1/22 37/1/22
f 21/1/23 37/1/23 1/1/23
f 21/1/24 22/1/24 4/1/24
f 44/1/25 38/1/25 45/1/25
f 63/1/26 81/1/26 23/1/26
f 23/1/27 81/1/27 22/1/27
f 49/1/28 44/1/28 82/1/28
f 21/1/29 1/1/29 3/1/29
f 85/1/30 43/1/30 82/1/30
f 46/1/31 47/1/31 6/1/31
f 5/1/32 82/1/32 43/1/32
f 48/1/33 52/1/33 51/1/33
f 5/1/34 50/1/34 3/1/34
f 5/1/35 47/1/35 50/1/35
f 25/1/36 33/1/36 51/1/36
f 10/1/37 54/1/37 60/1/37
f 10/1/38 31/1/38 79/1/38 32/1/38
f 50/1/39 48/1/39 26/1/39
f 50/1/40 47/1/40 46/1/40
f 11/1/41 54/1/41 76/1/41
f 50/1/42 46/1/42 48/1/42
f 51/1/43 52/1/43 25/1/43
f 48/1/44 51/1/44 26/1/44
f 53/1/45 54/1/45 9/1/45
f 10/1/46 32/1/46 7/1/46
f 54/1/47 53/1/47 57/1/47
f 34/1/48 24/1/48 27/1/48
f 34/1/49 27/1/49 8/1/49
f 7/1/50 11/1/50 76/1/50
f 60/1/51 31/1/51 10/1/51
f 55/1/52 9/1/52 8/1/52
f 8/1/53 27/1/53 55/1/53
f 66/1/54 20/1/54 13/1/54 72/1/54
f 55/1/55 57/1/55 84/1/55
f 55/1/56 84/1/56 9/1/56
f 8/1/57 26/1/57 33/1/57
f 54/1/58 11/1/58 9/1/58
f 34/1/59 8/1/59 33/1/59
f 55/1/60 27/1/60 56/1/60
f 8/1/61 9/1/61 11/1/61
f 57/1/62 53/1/62 84/1/62
f 53/1/63 9/1/63 84/1/63
f 55/1/64 56/1/64 54/1/64
f 78/1/65 12/1/65 28/1/65
f 78/1/66 28/1/66 59/1/66
f 12/1/67 17/1/67 28/1/67
f 18/1/68 41/1/68 80/1/68
f 28/1/69 17/1/69 42/1/69
f 67/1/70 16/1/71 12/1/72
f 77/1/73 61/1/73 41/1/73
f 29/1/74 42/1/74 17/1/74
f 20/1/75 19/1/75 41/1/75
f 41/1/76 61/1/76 20/1/76
f 78/1/77 67/1/70 12/1/72
f 86/1/78 77/1/78 18/1/78
f 20/1/79 61/1/79 65/1/79
f 13/1/80 15/1/80 68/1/80
f 95/1/81 73/1/81 69/1/81
f 16/1/82 74/1/82 68/1/82
f 83/1/83 59/1/83 71/1/83
f 14/1/84 15/1/84 80/1/84
f 18/1/85 77/1/85 41/1/85
f 71/1/86 16/1/87 67/1/88
f 15/1/89 18/1/89 80/1/89
f 71/1/90 67/1/90 83/1/90
f 71/1/86 74/1/91 16/1/87
f 15/1/92 14/1/92 16/1/92
f 68/1/93 15/1/93 16/1/93
f 6/1/94 98/1/94 24/1/94
f 33/1/95 26/1/95 51/1/95
f 10/1/96 76/1/96 54/1/96
f 10/1/97 7/1/97 76/1/97
f 7/1/98 30/1/98 17/1/98
f 29/1/99 17/1/99 30/1/99
f 69/1/100 31/1/100 60/1/100 54/1/100 56/1/100 35/1/100
f 62/1/101 65/1/101 61/1/101
f 83/1/102 67/1/102 78/1/102
f 59/1/103 83/1/103 78/1/103
f 72/1/104 94/1/104 66/1/104
f 104/1/105 99/1/105 100/1/105 101/1/105 102/1/105 103/1/105
f 18/1/106 15/1/106 86/1/106
f 26/1/107 8/1/107 11/1/107
f 16/1/108 14/1/108 17/1/108 12/1/108
f 40/1/109 39/1/109 36/1/109 1/1/109
f 94/1/110 97/1/110 39/1/110
f 39/1/111 97/1/111 98/1/111 87/1/111
f 35/1/112 56/1/112 27/1/112 24/1/112 98/1/112 96/1/112
f 39/1/113 87/1/113 5/1/113 43/1/113
f 25/1/114 52/1/114 46/1/114 33/1/114
f 47/1/115 5/1/115 87/1/115 6/1/115
f 38/1/116 36/1/116 39/1/116 43/1/116 45/1/116
f 75/1/117 32/1/117 79/1/117 58/1/117
f 32/1/118 75/1/118 30/1/118 7/1/118
f 29/1/119 30/1/119 75/1/119 58/1/119
f 65/1/120 15/1/120 13/1/120 20/1/120
f 29/1/121 58/1/121 79/1/121 31/1/121
f 54/1/122 57/1/122 55/1/122
f 90/1/123 89/1/123 72/1/123 95/1/123
f 88/1/124 89/1/124 101/1/124 100/1/124
f 102/1/125 101/1/125 89/1/125 90/1/125
f 95/1/126 96/1/126 91/1/126 90/1/126
f 70/1/127 28/1/127 69/1/127 73/1/127
f 66/1/128 64/1/128 37/1/128 23/1/128
f 6/1/129 87/1/129 98/1/129
f 46/1/130 52/1/130 48/1/130
f 26/1/131 11/1/131 7/1/131 17/1/131 14/1/131 80/1/131 21/1/131 3/1/131 50/1/131
f 96/1/132 95/1/132 69/1/132 35/1/132
f 91/1/133 96/1/133 98/1/133 93/1/133
f 103/1/134 102/1/134 90/1/134 91/1/134
f 44/1/135 45/1/135 85/1/135 82/1/135
f 77/1/62 86/1/62 62/1/62 61/1/62
f 73/1/136 95/1/136 72/1/136 13/1/136 68/1/136 74/1/136 70/1/136
f 92/1/137 99/1/137 104/1/137 93/1/137
f 88/1/138 100/1/138 99/1/138 92/1/138
f 93/1/139 104/1/139 103/1/139 91/1/139
f 93/1/140 98/1/140 97/1/141 92/1/142
f 65/1/143 62/1/143 86/1/143 15/1/143
f 46/1/144 6/1/144 24/1/144 34/1/144 33/1/144
f 71/1/145 59/1/145 28/1/145 70/1/145 74/1/145
f 31/1/146 69/1/146 28/1/146 42/1/146 29/1/146
f 66/1/147 94/1/147 64/1/147
f 64/1/148 94/1/148 39/1/148
f 40/1/149 64/1/149 39/1/149
f 89/1/150 88/1/150 94/1/150 72/1/150
f 92/1/142 97/1/141 94/1/151 88/1/151
